<?xml version="1.0" encoding="utf-8"?>
<!-- Generator: Adobe Illustrator 16.0.4, SVG Export Plug-In . SVG Version: 6.00 Build 0)  -->
<!DOCTYPE svg PUBLIC "-//W3C//DTD SVG 1.1//EN" "http://www.w3.org/Graphics/SVG/1.1/DTD/svg11.dtd">
<svg version="1.1" id="Vrstva_1" xmlns="http://www.w3.org/2000/svg" xmlns:xlink="http://www.w3.org/1999/xlink" x="0px" y="0px"
	 width="483.74px" height="302.439px" viewBox="0 0 483.74 302.439" enable-background="new 0 0 483.74 302.439"
	 xml:space="preserve">
<g>
	<path fill="#003771" d="M256.028,206.04c0-2.164,4.017-180.474,4.319-182.635c0.312-2.163-1.231-3.403-3.395-3.403h-38.631
		c0,0-3.092,0.62-3.092,2.476c0,1.854,0.928,2.78,2.164,2.78c1.235,0,3.397,0.927,6.488,0.927c5.872,0,7.416,5.87,7.729,9.889
		c0.308,4.019,4.33,173.679,4.947,179.237c0.616,5.565,4.327,7.729,13.293,8.034c8.957,0.312,20.7-4.323,22.553-5.252
		c1.854-0.928,4.947-3.396,4.33-5.562c-0.615-2.164-4.944-1.855-6.801-0.928c-1.854,0.928-9.27,2.166-11.436,1.237
		C256.341,211.913,256.028,208.206,256.028,206.04 M216.02,212.217c-2.162,0.929-6.488,2.164-8.035,1.238
		c-1.545-0.926-1.854-4.326-1.854-6.18c0-1.854,4.331-88.381,2.478-89.93c-1.854-1.546-11.123,2.163-17.615,1.549
		c-3.703-0.354-13.582-0.62-16.996-0.62c-5.873,0-5.562,5.562-2.78,6.182c1.536,0.342,4.639,0.733,7.106,0.617
		c6.49-0.306,7.108,7.107,7.108,10.815s-0.313,71.387,0.304,77.565c0.646,6.459,3.709,10.195,16.998,9.887
		c8.597-0.194,16.812-3.151,21.014-6.491c2.292-1.816,3.107-4.271,2.781-5.248C225.6,208.821,218.182,211.29,216.02,212.217
		 M208.299,102.621c4.945-6.178,4.761-15.912,0-19.779c-4.944-4.016-14.833,0.312-19.159,4.947
		c-4.326,4.633-6.183,15.758-0.31,20.083C194.703,112.2,203.354,108.797,208.299,102.621 M287.069,135.885
		c0,3.707-0.311,71.383,0.306,77.563c0.646,6.465,3.709,10.195,17.002,9.893c8.596-0.2,16.807-3.157,21.013-6.489
		c2.286-1.824,3.104-4.273,2.778-5.259c-0.927-2.78-8.344-0.305-10.511,0.623c-2.155,0.929-6.488,2.16-8.03,1.232
		c-1.552-0.93-1.854-4.324-1.854-6.182c0-1.853,4.328-88.377,2.474-89.926c-1.854-1.545-11.127,2.165-17.614,1.549
		c-3.702-0.352-13.584-0.62-16.993-0.62c-5.873,0-5.562,5.563-2.779,6.182c1.535,0.345,4.635,0.734,7.104,0.621
		C286.453,124.76,287.069,132.177,287.069,135.885 M309.942,102.484c4.938-6.183,4.758-15.908,0-19.776
		c-4.947-4.02-14.834,0.308-19.164,4.942c-4.325,4.635-6.181,15.76-0.305,20.088C296.338,112.06,304.995,108.666,309.942,102.484
		 M448.619,99.352c-14.351-30.177-52.642-43.305-79.069-46.262c-22.913-2.562-94.244-4.479-94.244-4.479s-7.131-0.346-6.825,4.309
		c0.312,4.651,4.965,4.673,4.965,4.673s48.978,0.854,63.239,2.16c14.26,1.312,49.104-0.063,71.854,18.318
		c27.601,19.524,34.807,58.774,34.807,82.959c0,24.184-4.392,54.994-29.46,76.912c-29.752,24.102-90.222,22.662-108.206,22.893
		c-17.979,0.22-111.003,0.717-122.473,0.662c-11.471-0.055-73.485,2.441-109.764-16.957c-36.277-19.393-40.998-46.389-41.549-81.119
		c-0.647-40.966,15.438-72.54,35.35-85.72c23.256-15.394,71.316-18.265,83.408-18.829c12.092-0.56,67.111-0.916,67.111-0.916
		s4.342,0.644,4.963-3.696s-4.033-5.292-4.033-5.292s-25.17-0.839-51.086-0.062c-23.998,0.718-47.156,2.948-61.914,5.417
		C74.996,59.447,51.741,69.26,35.927,97.089c-8.932,15.722-15.062,38.027-14.882,67.213c0.142,22.484,3.588,52.056,18.293,70.476
		c33.796,42.317,87.125,42.572,118.134,44.893c31.006,2.312,134.251,3.738,158.439,1.992c24.184-1.744,103.825-1.547,131.783-52.699
		C469.438,189.174,465.6,133.167,448.619,99.352 M378.846,200.493c0,2.16-0.614,4.939-2.469,6.18
		c-1.854,1.238-12.356,7.104-17.303,6.49c-4.948-0.617-7.418-8.969-6.492-16.688c0.928-7.73,2.166-14.527,8.344-18.543
		c6.181-4.021,17.92-9.271,17.92-9.271V200.493z M378.846,137.757c0.624,8.963,0.928,18.854,0.928,18.854
		s-27.812,13.902-32.447,16.996c-4.639,3.088-16.072,13.903-13.598,31.522c2.472,17.611,16.69,18.229,23.794,18.229
		c7.113,0,23.179-9.887,23.179-9.887s2.789,8.03,14.529,8.03c11.738,0,21.011-4.635,22.864-6.176
		c1.854-1.553,2.783-3.094,1.854-4.336c-0.929-1.229-2.165-2.469-4.635-1.852c-2.47,0.62-5.876,3.094-8.347,1.549
		c-2.47-1.549-5.248-9.896-5.248-14.215v-49.754c0,0-2.166-31.831-30.595-31.831c-10.663,0-19.767,5.188-25.031,11.435
		c-8.787,10.411-9.7,26.191-9.896,28.121c-0.305,3.096,1.685,4.332,9.101,4.332c7.417,0,10.51-0.314,10.82-4.332
		c0.305-4.015,2.166-17.305,3.707-21.939c1.543-4.635,3.881-9.89,11.603-9.582C377.607,123.173,378.231,128.795,378.846,137.757
		 M101.056,113.921c0-3.094,0.617-6.489,7.419-6.182c3.086,0.14,21.939,2.781,29.666,22.251c7.727,19.467,8.034,50.369-0.309,65.514
		c-8.343,15.144-19.47,18.23-24.724,18.539c-5.254,0.312-10.817,1.232-11.127-4.633
		C101.676,203.534,101.056,117.013,101.056,113.921 M80.044,114.844c0,0,0.309,93.633,0.309,94.872c0,1.23-1.545,4.015-3.398,5.566
		c-1.854,1.541-8.963,2.777-11.125,3.082c-2.165,0.312-5.563,0.623-5.563,3.094c0,2.469,2.781,2.779,5.254,3.092
		c2.475,0.312,23.231-0.521,41.102-2.161c8.822-0.82,23.684-2.384,35.539-10.201c15.139-9.978,26.479-28.896,25.959-55.935
		c-0.926-48.208-42.646-57.167-50.372-56.86c-7.728,0.31-52.536-0.001-52.536-0.001s-5.562,0.307-5.562,2.475
		c0,2.166,2.473,2.78,4.02,3.09c1.545,0.308,5.562,0.926,7.107,0.926c1.543,0,4.018,0.311,6.488,1.854
		C79.733,109.283,80.044,114.844,80.044,114.844"/>
</g>
</svg>
